<svg width="154" height="100" viewBox="0 0 154 100" fill="none" xmlns="http://www.w3.org/2000/svg">
<path d="M57.824 72V60.8H62.016C62.9653 60.8 63.7813 60.9547 64.464 61.264C65.1467 61.5627 65.6693 62 66.032 62.576C66.4053 63.1413 66.592 63.8293 66.592 64.64C66.592 65.4293 66.4053 66.112 66.032 66.688C65.6693 67.2533 65.1467 67.6907 64.464 68C63.7813 68.3093 62.9653 68.464 62.016 68.464H58.48L59.008 67.904V72H57.824ZM59.008 68L58.48 67.424H61.984C63.104 67.424 63.952 67.184 64.528 66.704C65.1147 66.2133 65.408 65.5253 65.408 64.64C65.408 63.744 65.1147 63.0507 64.528 62.56C63.952 62.0693 63.104 61.824 61.984 61.824H58.48L59.008 61.264V68ZM72.5333 72.08C71.6586 72.08 70.8906 71.8987 70.2293 71.536C69.5679 71.1627 69.0506 70.656 68.6773 70.016C68.3039 69.3653 68.1173 68.624 68.1173 67.792C68.1173 66.96 68.2933 66.224 68.6453 65.584C69.0079 64.944 69.4986 64.4427 70.1173 64.08C70.7466 63.7067 71.4506 63.52 72.2293 63.52C73.0186 63.52 73.7173 63.7013 74.3253 64.064C74.9439 64.416 75.4293 64.9173 75.7813 65.568C76.1333 66.208 76.3093 66.9493 76.3093 67.792C76.3093 67.8453 76.3039 67.904 76.2933 67.968C76.2933 68.0213 76.2933 68.08 76.2933 68.144H68.9813V67.296H75.6853L75.2373 67.632C75.2373 67.024 75.1039 66.4853 74.8373 66.016C74.5813 65.536 74.2293 65.1627 73.7813 64.896C73.3333 64.6293 72.8159 64.496 72.2293 64.496C71.6533 64.496 71.1359 64.6293 70.6773 64.896C70.2186 65.1627 69.8613 65.536 69.6053 66.016C69.3493 66.496 69.2213 67.0453 69.2213 67.664V67.84C69.2213 68.48 69.3599 69.0453 69.6373 69.536C69.9253 70.016 70.3199 70.3947 70.8213 70.672C71.3333 70.9387 71.9146 71.072 72.5653 71.072C73.0773 71.072 73.5519 70.9813 73.9893 70.8C74.4373 70.6187 74.8213 70.3413 75.1413 69.968L75.7813 70.704C75.4079 71.152 74.9386 71.4933 74.3733 71.728C73.8186 71.9627 73.2053 72.08 72.5333 72.08ZM78.7215 72V63.6H79.8095V65.888L79.6975 65.488C79.9322 64.848 80.3268 64.3627 80.8815 64.032C81.4362 63.6907 82.1242 63.52 82.9455 63.52V64.624C82.9028 64.624 82.8602 64.624 82.8175 64.624C82.7748 64.6133 82.7322 64.608 82.6895 64.608C81.8042 64.608 81.1108 64.88 80.6095 65.424C80.1082 65.9573 79.8575 66.72 79.8575 67.712V72H78.7215ZM87.5469 73.6L92.8269 58.528H93.8669L88.5869 73.6H87.5469ZM109.774 63.52C110.456 63.52 111.048 63.6533 111.55 63.92C112.062 64.176 112.456 64.5707 112.734 65.104C113.022 65.6373 113.166 66.3093 113.166 67.12V72H112.03V67.232C112.03 66.3467 111.816 65.68 111.39 65.232C110.974 64.7733 110.382 64.544 109.614 64.544C109.038 64.544 108.536 64.6667 108.11 64.912C107.694 65.1467 107.368 65.4933 107.134 65.952C106.91 66.4 106.798 66.944 106.798 67.584V72H105.662V67.232C105.662 66.3467 105.448 65.68 105.022 65.232C104.595 64.7733 103.998 64.544 103.23 64.544C102.664 64.544 102.168 64.6667 101.742 64.912C101.315 65.1467 100.984 65.4933 100.75 65.952C100.526 66.4 100.414 66.944 100.414 67.584V72H99.2777V63.6H100.366V65.872L100.19 65.472C100.446 64.864 100.856 64.3893 101.422 64.048C101.998 63.696 102.675 63.52 103.454 63.52C104.275 63.52 104.974 63.728 105.55 64.144C106.126 64.5493 106.499 65.1627 106.67 65.984L106.222 65.808C106.467 65.1253 106.899 64.576 107.518 64.16C108.147 63.7333 108.899 63.52 109.774 63.52ZM119.771 72.08C118.96 72.08 118.229 71.8987 117.579 71.536C116.939 71.1627 116.432 70.656 116.059 70.016C115.685 69.3653 115.499 68.624 115.499 67.792C115.499 66.9493 115.685 66.208 116.059 65.568C116.432 64.928 116.939 64.4267 117.579 64.064C118.219 63.7013 118.949 63.52 119.771 63.52C120.603 63.52 121.339 63.7013 121.979 64.064C122.629 64.4267 123.136 64.928 123.499 65.568C123.872 66.208 124.059 66.9493 124.059 67.792C124.059 68.624 123.872 69.3653 123.499 70.016C123.136 70.656 122.629 71.1627 121.979 71.536C121.328 71.8987 120.592 72.08 119.771 72.08ZM119.771 71.072C120.379 71.072 120.917 70.9387 121.387 70.672C121.856 70.3947 122.224 70.0107 122.491 69.52C122.768 69.0187 122.907 68.4427 122.907 67.792C122.907 67.1307 122.768 66.5547 122.491 66.064C122.224 65.5733 121.856 65.1947 121.387 64.928C120.917 64.6507 120.384 64.512 119.787 64.512C119.189 64.512 118.656 64.6507 118.187 64.928C117.717 65.1947 117.344 65.5733 117.067 66.064C116.789 66.5547 116.651 67.1307 116.651 67.792C116.651 68.4427 116.789 69.0187 117.067 69.52C117.344 70.0107 117.717 70.3947 118.187 70.672C118.656 70.9387 119.184 71.072 119.771 71.072ZM130.766 63.52C131.448 63.52 132.046 63.6533 132.558 63.92C133.08 64.176 133.486 64.5707 133.774 65.104C134.072 65.6373 134.222 66.3093 134.222 67.12V72H133.086V67.232C133.086 66.3467 132.862 65.68 132.414 65.232C131.976 64.7733 131.358 64.544 130.558 64.544C129.96 64.544 129.438 64.6667 128.99 64.912C128.552 65.1467 128.211 65.4933 127.966 65.952C127.731 66.4 127.614 66.944 127.614 67.584V72H126.478V63.6H127.566V65.904L127.39 65.472C127.656 64.864 128.083 64.3893 128.67 64.048C129.256 63.696 129.955 63.52 130.766 63.52ZM140.046 72.08C139.257 72.08 138.649 71.8667 138.222 71.44C137.796 71.0133 137.582 70.4107 137.582 69.632V61.744H138.718V69.568C138.718 70.0587 138.841 70.4373 139.086 70.704C139.342 70.9707 139.705 71.104 140.174 71.104C140.676 71.104 141.092 70.96 141.422 70.672L141.822 71.488C141.598 71.6907 141.326 71.84 141.006 71.936C140.697 72.032 140.377 72.08 140.046 72.08ZM136.078 64.544V63.6H141.278V64.544H136.078ZM148.278 63.52C148.961 63.52 149.558 63.6533 150.07 63.92C150.593 64.176 150.998 64.5707 151.286 65.104C151.585 65.6373 151.734 66.3093 151.734 67.12V72H150.598V67.232C150.598 66.3467 150.374 65.68 149.926 65.232C149.489 64.7733 148.87 64.544 148.07 64.544C147.473 64.544 146.95 64.6667 146.502 64.912C146.065 65.1467 145.724 65.4933 145.478 65.952C145.244 66.4 145.126 66.944 145.126 67.584V72H143.99V60.128H145.126V65.904L144.902 65.472C145.169 64.864 145.596 64.3893 146.182 64.048C146.769 63.696 147.468 63.52 148.278 63.52Z" fill="#E0E0E0"/>
<path d="M21.4524 77.912C17.7537 77.912 14.0804 77.4307 10.4324 76.468C6.83506 75.4547 3.74439 74.036 1.16039 72.212L6.02439 62.788C8.05106 64.2573 10.3817 65.4227 13.0164 66.284C15.7017 67.1453 18.4124 67.576 21.1484 67.576C24.2391 67.576 26.6711 66.968 28.4444 65.752C30.2177 64.536 31.1044 62.8387 31.1044 60.66C31.1044 59.292 30.7497 58.076 30.0404 57.012C29.3311 55.948 28.0644 55.1373 26.2404 54.58C24.4671 54.0227 21.9591 53.744 18.7164 53.744H5.11239L7.84839 23.8H40.3004V33.68H12.2564L18.6404 28.056L16.7404 49.412L10.3564 43.788H21.6044C26.8737 43.788 31.1044 44.5227 34.2964 45.992C37.5391 47.4107 39.8951 49.3613 41.3644 51.844C42.8337 54.3267 43.5684 57.1387 43.5684 60.28C43.5684 63.4213 42.7831 66.3347 41.2124 69.02C39.6417 71.6547 37.2097 73.808 33.9164 75.48C30.6737 77.1013 26.5191 77.912 21.4524 77.912Z" fill="white"/>
<path d="M62.648 47.88V25.32H65.048V47.88H62.648ZM63.512 45.288C62.168 45.288 60.88 45.112 59.648 44.76C58.416 44.392 57.424 43.92 56.672 43.344L57.992 40.416C58.712 40.928 59.56 41.352 60.536 41.688C61.528 42.008 62.528 42.168 63.536 42.168C64.304 42.168 64.92 42.096 65.384 41.952C65.864 41.792 66.216 41.576 66.44 41.304C66.664 41.032 66.776 40.72 66.776 40.368C66.776 39.92 66.6 39.568 66.248 39.312C65.896 39.04 65.432 38.824 64.856 38.664C64.28 38.488 63.64 38.328 62.936 38.184C62.248 38.024 61.552 37.832 60.848 37.608C60.16 37.384 59.528 37.096 58.952 36.744C58.376 36.392 57.904 35.928 57.536 35.352C57.184 34.776 57.008 34.04 57.008 33.144C57.008 32.184 57.264 31.312 57.776 30.528C58.304 29.728 59.088 29.096 60.128 28.632C61.184 28.152 62.504 27.912 64.088 27.912C65.144 27.912 66.184 28.04 67.208 28.296C68.232 28.536 69.136 28.904 69.92 29.4L68.72 32.352C67.936 31.904 67.152 31.576 66.368 31.368C65.584 31.144 64.816 31.032 64.064 31.032C63.312 31.032 62.696 31.12 62.216 31.296C61.736 31.472 61.392 31.704 61.184 31.992C60.976 32.264 60.872 32.584 60.872 32.952C60.872 33.384 61.048 33.736 61.4 34.008C61.752 34.264 62.216 34.472 62.792 34.632C63.368 34.792 64 34.952 64.688 35.112C65.392 35.272 66.088 35.456 66.776 35.664C67.48 35.872 68.12 36.152 68.696 36.504C69.272 36.856 69.736 37.32 70.088 37.896C70.456 38.472 70.64 39.2 70.64 40.08C70.64 41.024 70.376 41.888 69.848 42.672C69.32 43.456 68.528 44.088 67.472 44.568C66.432 45.048 65.112 45.288 63.512 45.288Z" fill="white"/>
</svg>
