<svg width="187" height="100" viewBox="0 0 187 100" fill="none" xmlns="http://www.w3.org/2000/svg">
<path d="M90.824 72V60.8H95.016C95.9653 60.8 96.7813 60.9547 97.464 61.264C98.1467 61.5627 98.6693 62 99.032 62.576C99.4053 63.1413 99.592 63.8293 99.592 64.64C99.592 65.4293 99.4053 66.112 99.032 66.688C98.6693 67.2533 98.1467 67.6907 97.464 68C96.7813 68.3093 95.9653 68.464 95.016 68.464H91.48L92.008 67.904V72H90.824ZM92.008 68L91.48 67.424H94.984C96.104 67.424 96.952 67.184 97.528 66.704C98.1147 66.2133 98.408 65.5253 98.408 64.64C98.408 63.744 98.1147 63.0507 97.528 62.56C96.952 62.0693 96.104 61.824 94.984 61.824H91.48L92.008 61.264V68ZM105.533 72.08C104.659 72.08 103.891 71.8987 103.229 71.536C102.568 71.1627 102.051 70.656 101.677 70.016C101.304 69.3653 101.117 68.624 101.117 67.792C101.117 66.96 101.293 66.224 101.645 65.584C102.008 64.944 102.499 64.4427 103.117 64.08C103.747 63.7067 104.451 63.52 105.229 63.52C106.019 63.52 106.717 63.7013 107.325 64.064C107.944 64.416 108.429 64.9173 108.781 65.568C109.133 66.208 109.309 66.9493 109.309 67.792C109.309 67.8453 109.304 67.904 109.293 67.968C109.293 68.0213 109.293 68.08 109.293 68.144H101.981V67.296H108.685L108.237 67.632C108.237 67.024 108.104 66.4853 107.837 66.016C107.581 65.536 107.229 65.1627 106.781 64.896C106.333 64.6293 105.816 64.496 105.229 64.496C104.653 64.496 104.136 64.6293 103.677 64.896C103.219 65.1627 102.861 65.536 102.605 66.016C102.349 66.496 102.221 67.0453 102.221 67.664V67.84C102.221 68.48 102.36 69.0453 102.637 69.536C102.925 70.016 103.32 70.3947 103.821 70.672C104.333 70.9387 104.915 71.072 105.565 71.072C106.077 71.072 106.552 70.9813 106.989 70.8C107.437 70.6187 107.821 70.3413 108.141 69.968L108.781 70.704C108.408 71.152 107.939 71.4933 107.373 71.728C106.819 71.9627 106.205 72.08 105.533 72.08ZM111.722 72V63.6H112.81V65.888L112.698 65.488C112.932 64.848 113.327 64.3627 113.882 64.032C114.436 63.6907 115.124 63.52 115.946 63.52V64.624C115.903 64.624 115.86 64.624 115.818 64.624C115.775 64.6133 115.732 64.608 115.69 64.608C114.804 64.608 114.111 64.88 113.61 65.424C113.108 65.9573 112.858 66.72 112.858 67.712V72H111.722ZM120.547 73.6L125.827 58.528H126.867L121.587 73.6H120.547ZM142.774 63.52C143.456 63.52 144.048 63.6533 144.55 63.92C145.062 64.176 145.456 64.5707 145.734 65.104C146.022 65.6373 146.166 66.3093 146.166 67.12V72H145.03V67.232C145.03 66.3467 144.816 65.68 144.39 65.232C143.974 64.7733 143.382 64.544 142.614 64.544C142.038 64.544 141.536 64.6667 141.11 64.912C140.694 65.1467 140.368 65.4933 140.134 65.952C139.91 66.4 139.798 66.944 139.798 67.584V72H138.662V67.232C138.662 66.3467 138.448 65.68 138.022 65.232C137.595 64.7733 136.998 64.544 136.23 64.544C135.664 64.544 135.168 64.6667 134.742 64.912C134.315 65.1467 133.984 65.4933 133.75 65.952C133.526 66.4 133.414 66.944 133.414 67.584V72H132.278V63.6H133.366V65.872L133.19 65.472C133.446 64.864 133.856 64.3893 134.422 64.048C134.998 63.696 135.675 63.52 136.454 63.52C137.275 63.52 137.974 63.728 138.55 64.144C139.126 64.5493 139.499 65.1627 139.67 65.984L139.222 65.808C139.467 65.1253 139.899 64.576 140.518 64.16C141.147 63.7333 141.899 63.52 142.774 63.52ZM152.771 72.08C151.96 72.08 151.229 71.8987 150.579 71.536C149.939 71.1627 149.432 70.656 149.059 70.016C148.685 69.3653 148.499 68.624 148.499 67.792C148.499 66.9493 148.685 66.208 149.059 65.568C149.432 64.928 149.939 64.4267 150.579 64.064C151.219 63.7013 151.949 63.52 152.771 63.52C153.603 63.52 154.339 63.7013 154.979 64.064C155.629 64.4267 156.136 64.928 156.499 65.568C156.872 66.208 157.059 66.9493 157.059 67.792C157.059 68.624 156.872 69.3653 156.499 70.016C156.136 70.656 155.629 71.1627 154.979 71.536C154.328 71.8987 153.592 72.08 152.771 72.08ZM152.771 71.072C153.379 71.072 153.917 70.9387 154.387 70.672C154.856 70.3947 155.224 70.0107 155.491 69.52C155.768 69.0187 155.907 68.4427 155.907 67.792C155.907 67.1307 155.768 66.5547 155.491 66.064C155.224 65.5733 154.856 65.1947 154.387 64.928C153.917 64.6507 153.384 64.512 152.787 64.512C152.189 64.512 151.656 64.6507 151.187 64.928C150.717 65.1947 150.344 65.5733 150.067 66.064C149.789 66.5547 149.651 67.1307 149.651 67.792C149.651 68.4427 149.789 69.0187 150.067 69.52C150.344 70.0107 150.717 70.3947 151.187 70.672C151.656 70.9387 152.184 71.072 152.771 71.072ZM163.766 63.52C164.448 63.52 165.046 63.6533 165.558 63.92C166.08 64.176 166.486 64.5707 166.774 65.104C167.072 65.6373 167.222 66.3093 167.222 67.12V72H166.086V67.232C166.086 66.3467 165.862 65.68 165.414 65.232C164.976 64.7733 164.358 64.544 163.558 64.544C162.96 64.544 162.438 64.6667 161.99 64.912C161.552 65.1467 161.211 65.4933 160.966 65.952C160.731 66.4 160.614 66.944 160.614 67.584V72H159.478V63.6H160.566V65.904L160.39 65.472C160.656 64.864 161.083 64.3893 161.67 64.048C162.256 63.696 162.955 63.52 163.766 63.52ZM173.046 72.08C172.257 72.08 171.649 71.8667 171.222 71.44C170.796 71.0133 170.582 70.4107 170.582 69.632V61.744H171.718V69.568C171.718 70.0587 171.841 70.4373 172.086 70.704C172.342 70.9707 172.705 71.104 173.174 71.104C173.676 71.104 174.092 70.96 174.422 70.672L174.822 71.488C174.598 71.6907 174.326 71.84 174.006 71.936C173.697 72.032 173.377 72.08 173.046 72.08ZM169.078 64.544V63.6H174.278V64.544H169.078ZM181.278 63.52C181.961 63.52 182.558 63.6533 183.07 63.92C183.593 64.176 183.998 64.5707 184.286 65.104C184.585 65.6373 184.734 66.3093 184.734 67.12V72H183.598V67.232C183.598 66.3467 183.374 65.68 182.926 65.232C182.489 64.7733 181.87 64.544 181.07 64.544C180.473 64.544 179.95 64.6667 179.502 64.912C179.065 65.1467 178.724 65.4933 178.478 65.952C178.244 66.4 178.126 66.944 178.126 67.584V72H176.99V60.128H178.126V65.904L177.902 65.472C178.169 64.864 178.596 64.3893 179.182 64.048C179.769 63.696 180.468 63.52 181.278 63.52Z" fill="#AFAFAF"/>
<path d="M11.4001 77V28.36L16.7201 33.68H0.760127V23.8H23.7121V77H11.4001ZM55.9538 77.912C51.5965 77.912 47.6952 76.848 44.2498 74.72C40.8045 72.5413 38.0938 69.4 36.1178 65.296C34.1418 61.192 33.1538 56.2267 33.1538 50.4C33.1538 44.5733 34.1418 39.608 36.1178 35.504C38.0938 31.4 40.8045 28.284 44.2498 26.156C47.6952 23.9773 51.5965 22.888 55.9538 22.888C60.3618 22.888 64.2632 23.9773 67.6578 26.156C71.1032 28.284 73.8138 31.4 75.7898 35.504C77.7658 39.608 78.7539 44.5733 78.7539 50.4C78.7539 56.2267 77.7658 61.192 75.7898 65.296C73.8138 69.4 71.1032 72.5413 67.6578 74.72C64.2632 76.848 60.3618 77.912 55.9538 77.912ZM55.9538 67.5C58.0312 67.5 59.8298 66.9173 61.3498 65.752C62.9205 64.5867 64.1365 62.7373 64.9978 60.204C65.9098 57.6707 66.3658 54.4027 66.3658 50.4C66.3658 46.3973 65.9098 43.1293 64.9978 40.596C64.1365 38.0627 62.9205 36.2133 61.3498 35.048C59.8298 33.8827 58.0312 33.3 55.9538 33.3C53.9272 33.3 52.1285 33.8827 50.5578 35.048C49.0378 36.2133 47.8218 38.0627 46.9098 40.596C46.0485 43.1293 45.6178 46.3973 45.6178 50.4C45.6178 54.4027 46.0485 57.6707 46.9098 60.204C47.8218 62.7373 49.0378 64.5867 50.5578 65.752C52.1285 66.9173 53.9272 67.5 55.9538 67.5Z" fill="#02897A"/>
<path d="M95.648 50.88V28.32H98.048V50.88H95.648ZM96.512 48.288C95.168 48.288 93.88 48.112 92.648 47.76C91.416 47.392 90.424 46.92 89.672 46.344L90.992 43.416C91.712 43.928 92.56 44.352 93.536 44.688C94.528 45.008 95.528 45.168 96.536 45.168C97.304 45.168 97.92 45.096 98.384 44.952C98.864 44.792 99.216 44.576 99.44 44.304C99.664 44.032 99.776 43.72 99.776 43.368C99.776 42.92 99.6 42.568 99.248 42.312C98.896 42.04 98.432 41.824 97.856 41.664C97.28 41.488 96.64 41.328 95.936 41.184C95.248 41.024 94.552 40.832 93.848 40.608C93.16 40.384 92.528 40.096 91.952 39.744C91.376 39.392 90.904 38.928 90.536 38.352C90.184 37.776 90.008 37.04 90.008 36.144C90.008 35.184 90.264 34.312 90.776 33.528C91.304 32.728 92.088 32.096 93.128 31.632C94.184 31.152 95.504 30.912 97.088 30.912C98.144 30.912 99.184 31.04 100.208 31.296C101.232 31.536 102.136 31.904 102.92 32.4L101.72 35.352C100.936 34.904 100.152 34.576 99.368 34.368C98.584 34.144 97.816 34.032 97.064 34.032C96.312 34.032 95.696 34.12 95.216 34.296C94.736 34.472 94.392 34.704 94.184 34.992C93.976 35.264 93.872 35.584 93.872 35.952C93.872 36.384 94.048 36.736 94.4 37.008C94.752 37.264 95.216 37.472 95.792 37.632C96.368 37.792 97 37.952 97.688 38.112C98.392 38.272 99.088 38.456 99.776 38.664C100.48 38.872 101.12 39.152 101.696 39.504C102.272 39.856 102.736 40.32 103.088 40.896C103.456 41.472 103.64 42.2 103.64 43.08C103.64 44.024 103.376 44.888 102.848 45.672C102.32 46.456 101.528 47.088 100.472 47.568C99.432 48.048 98.112 48.288 96.512 48.288Z" fill="#02897A"/>
</svg>
