<svg width="157" height="100" viewBox="0 0 157 100" fill="none" xmlns="http://www.w3.org/2000/svg">
<path d="M60.824 72V60.8H65.016C65.9653 60.8 66.7813 60.9547 67.464 61.264C68.1467 61.5627 68.6693 62 69.032 62.576C69.4053 63.1413 69.592 63.8293 69.592 64.64C69.592 65.4293 69.4053 66.112 69.032 66.688C68.6693 67.2533 68.1467 67.6907 67.464 68C66.7813 68.3093 65.9653 68.464 65.016 68.464H61.48L62.008 67.904V72H60.824ZM62.008 68L61.48 67.424H64.984C66.104 67.424 66.952 67.184 67.528 66.704C68.1147 66.2133 68.408 65.5253 68.408 64.64C68.408 63.744 68.1147 63.0507 67.528 62.56C66.952 62.0693 66.104 61.824 64.984 61.824H61.48L62.008 61.264V68ZM75.5333 72.08C74.6586 72.08 73.8906 71.8987 73.2293 71.536C72.5679 71.1627 72.0506 70.656 71.6773 70.016C71.3039 69.3653 71.1173 68.624 71.1173 67.792C71.1173 66.96 71.2933 66.224 71.6453 65.584C72.0079 64.944 72.4986 64.4427 73.1173 64.08C73.7466 63.7067 74.4506 63.52 75.2293 63.52C76.0186 63.52 76.7173 63.7013 77.3253 64.064C77.9439 64.416 78.4293 64.9173 78.7813 65.568C79.1333 66.208 79.3093 66.9493 79.3093 67.792C79.3093 67.8453 79.3039 67.904 79.2933 67.968C79.2933 68.0213 79.2933 68.08 79.2933 68.144H71.9813V67.296H78.6853L78.2373 67.632C78.2373 67.024 78.1039 66.4853 77.8373 66.016C77.5813 65.536 77.2293 65.1627 76.7813 64.896C76.3333 64.6293 75.8159 64.496 75.2293 64.496C74.6533 64.496 74.1359 64.6293 73.6773 64.896C73.2186 65.1627 72.8613 65.536 72.6053 66.016C72.3493 66.496 72.2213 67.0453 72.2213 67.664V67.84C72.2213 68.48 72.3599 69.0453 72.6373 69.536C72.9253 70.016 73.3199 70.3947 73.8213 70.672C74.3333 70.9387 74.9146 71.072 75.5653 71.072C76.0773 71.072 76.5519 70.9813 76.9893 70.8C77.4373 70.6187 77.8213 70.3413 78.1413 69.968L78.7813 70.704C78.4079 71.152 77.9386 71.4933 77.3733 71.728C76.8186 71.9627 76.2053 72.08 75.5333 72.08ZM81.7215 72V63.6H82.8095V65.888L82.6975 65.488C82.9322 64.848 83.3268 64.3627 83.8815 64.032C84.4362 63.6907 85.1242 63.52 85.9455 63.52V64.624C85.9028 64.624 85.8602 64.624 85.8175 64.624C85.7748 64.6133 85.7322 64.608 85.6895 64.608C84.8042 64.608 84.1108 64.88 83.6095 65.424C83.1082 65.9573 82.8575 66.72 82.8575 67.712V72H81.7215ZM90.5469 73.6L95.8269 58.528H96.8669L91.5869 73.6H90.5469ZM112.774 63.52C113.456 63.52 114.048 63.6533 114.55 63.92C115.062 64.176 115.456 64.5707 115.734 65.104C116.022 65.6373 116.166 66.3093 116.166 67.12V72H115.03V67.232C115.03 66.3467 114.816 65.68 114.39 65.232C113.974 64.7733 113.382 64.544 112.614 64.544C112.038 64.544 111.536 64.6667 111.11 64.912C110.694 65.1467 110.368 65.4933 110.134 65.952C109.91 66.4 109.798 66.944 109.798 67.584V72H108.662V67.232C108.662 66.3467 108.448 65.68 108.022 65.232C107.595 64.7733 106.998 64.544 106.23 64.544C105.664 64.544 105.168 64.6667 104.742 64.912C104.315 65.1467 103.984 65.4933 103.75 65.952C103.526 66.4 103.414 66.944 103.414 67.584V72H102.278V63.6H103.366V65.872L103.19 65.472C103.446 64.864 103.856 64.3893 104.422 64.048C104.998 63.696 105.675 63.52 106.454 63.52C107.275 63.52 107.974 63.728 108.55 64.144C109.126 64.5493 109.499 65.1627 109.67 65.984L109.222 65.808C109.467 65.1253 109.899 64.576 110.518 64.16C111.147 63.7333 111.899 63.52 112.774 63.52ZM122.771 72.08C121.96 72.08 121.229 71.8987 120.579 71.536C119.939 71.1627 119.432 70.656 119.059 70.016C118.685 69.3653 118.499 68.624 118.499 67.792C118.499 66.9493 118.685 66.208 119.059 65.568C119.432 64.928 119.939 64.4267 120.579 64.064C121.219 63.7013 121.949 63.52 122.771 63.52C123.603 63.52 124.339 63.7013 124.979 64.064C125.629 64.4267 126.136 64.928 126.499 65.568C126.872 66.208 127.059 66.9493 127.059 67.792C127.059 68.624 126.872 69.3653 126.499 70.016C126.136 70.656 125.629 71.1627 124.979 71.536C124.328 71.8987 123.592 72.08 122.771 72.08ZM122.771 71.072C123.379 71.072 123.917 70.9387 124.387 70.672C124.856 70.3947 125.224 70.0107 125.491 69.52C125.768 69.0187 125.907 68.4427 125.907 67.792C125.907 67.1307 125.768 66.5547 125.491 66.064C125.224 65.5733 124.856 65.1947 124.387 64.928C123.917 64.6507 123.384 64.512 122.787 64.512C122.189 64.512 121.656 64.6507 121.187 64.928C120.717 65.1947 120.344 65.5733 120.067 66.064C119.789 66.5547 119.651 67.1307 119.651 67.792C119.651 68.4427 119.789 69.0187 120.067 69.52C120.344 70.0107 120.717 70.3947 121.187 70.672C121.656 70.9387 122.184 71.072 122.771 71.072ZM133.766 63.52C134.448 63.52 135.046 63.6533 135.558 63.92C136.08 64.176 136.486 64.5707 136.774 65.104C137.072 65.6373 137.222 66.3093 137.222 67.12V72H136.086V67.232C136.086 66.3467 135.862 65.68 135.414 65.232C134.976 64.7733 134.358 64.544 133.558 64.544C132.96 64.544 132.438 64.6667 131.99 64.912C131.552 65.1467 131.211 65.4933 130.966 65.952C130.731 66.4 130.614 66.944 130.614 67.584V72H129.478V63.6H130.566V65.904L130.39 65.472C130.656 64.864 131.083 64.3893 131.67 64.048C132.256 63.696 132.955 63.52 133.766 63.52ZM143.046 72.08C142.257 72.08 141.649 71.8667 141.222 71.44C140.796 71.0133 140.582 70.4107 140.582 69.632V61.744H141.718V69.568C141.718 70.0587 141.841 70.4373 142.086 70.704C142.342 70.9707 142.705 71.104 143.174 71.104C143.676 71.104 144.092 70.96 144.422 70.672L144.822 71.488C144.598 71.6907 144.326 71.84 144.006 71.936C143.697 72.032 143.377 72.08 143.046 72.08ZM139.078 64.544V63.6H144.278V64.544H139.078ZM151.278 63.52C151.961 63.52 152.558 63.6533 153.07 63.92C153.593 64.176 153.998 64.5707 154.286 65.104C154.585 65.6373 154.734 66.3093 154.734 67.12V72H153.598V67.232C153.598 66.3467 153.374 65.68 152.926 65.232C152.489 64.7733 151.87 64.544 151.07 64.544C150.473 64.544 149.95 64.6667 149.502 64.912C149.065 65.1467 148.724 65.4933 148.478 65.952C148.244 66.4 148.126 66.944 148.126 67.584V72H146.99V60.128H148.126V65.904L147.902 65.472C148.169 64.864 148.596 64.3893 149.182 64.048C149.769 63.696 150.468 63.52 151.278 63.52Z" fill="#AFAFAF"/>
<path d="M25.973 77.912C21.6157 77.912 17.7143 76.848 14.269 74.72C10.8237 72.5413 8.11298 69.4 6.13698 65.296C4.16098 61.192 3.17298 56.2267 3.17298 50.4C3.17298 44.5733 4.16098 39.608 6.13698 35.504C8.11298 31.4 10.8237 28.284 14.269 26.156C17.7143 23.9773 21.6157 22.888 25.973 22.888C30.381 22.888 34.2823 23.9773 37.677 26.156C41.1223 28.284 43.833 31.4 45.809 35.504C47.785 39.608 48.773 44.5733 48.773 50.4C48.773 56.2267 47.785 61.192 45.809 65.296C43.833 69.4 41.1223 72.5413 37.677 74.72C34.2823 76.848 30.381 77.912 25.973 77.912ZM25.973 67.5C28.0503 67.5 29.849 66.9173 31.369 65.752C32.9397 64.5867 34.1557 62.7373 35.017 60.204C35.929 57.6707 36.385 54.4027 36.385 50.4C36.385 46.3973 35.929 43.1293 35.017 40.596C34.1557 38.0627 32.9397 36.2133 31.369 35.048C29.849 33.8827 28.0503 33.3 25.973 33.3C23.9463 33.3 22.1477 33.8827 20.577 35.048C19.057 36.2133 17.841 38.0627 16.929 40.596C16.0677 43.1293 15.637 46.3973 15.637 50.4C15.637 54.4027 16.0677 57.6707 16.929 60.204C17.841 62.7373 19.057 64.5867 20.577 65.752C22.1477 66.9173 23.9463 67.5 25.973 67.5Z" fill="#02897A"/>
<path d="M66.2784 50.1818V28.3636H67.6761V50.1818H66.2784ZM69.9858 35.5653C69.9176 34.8778 69.625 34.3437 69.108 33.9631C68.5909 33.5824 67.8892 33.392 67.0028 33.392C66.4006 33.392 65.892 33.4773 65.4773 33.6477C65.0625 33.8125 64.7443 34.0426 64.5227 34.3381C64.3068 34.6335 64.1989 34.9688 64.1989 35.3438C64.1875 35.6562 64.2528 35.929 64.3949 36.1619C64.5426 36.3949 64.7443 36.5966 65 36.767C65.2557 36.9318 65.5511 37.0767 65.8864 37.2017C66.2216 37.321 66.5795 37.4233 66.9602 37.5085L68.5284 37.8835C69.2898 38.054 69.9886 38.2812 70.625 38.5653C71.2614 38.8494 71.8125 39.1989 72.2784 39.6136C72.7443 40.0284 73.1051 40.517 73.3608 41.0795C73.6222 41.642 73.7557 42.2869 73.7614 43.0142C73.7557 44.0824 73.483 45.0085 72.9432 45.7926C72.4091 46.571 71.6364 47.1761 70.625 47.608C69.6193 48.0341 68.4063 48.2472 66.9858 48.2472C65.5767 48.2472 64.3494 48.0312 63.304 47.5994C62.2642 47.1676 61.4517 46.5284 60.8665 45.6818C60.2869 44.8295 59.983 43.7756 59.9545 42.5199H63.5256C63.5653 43.1051 63.733 43.5937 64.0284 43.9858C64.3295 44.3722 64.7301 44.6648 65.2301 44.8636C65.7358 45.0568 66.3068 45.1534 66.9432 45.1534C67.5682 45.1534 68.1108 45.0625 68.571 44.8807C69.0369 44.6989 69.3977 44.446 69.6534 44.1222C69.9091 43.7983 70.0369 43.4261 70.0369 43.0057C70.0369 42.6136 69.9205 42.2841 69.6875 42.017C69.4602 41.75 69.125 41.5227 68.6818 41.3352C68.2443 41.1477 67.7074 40.9773 67.071 40.8239L65.1705 40.3466C63.6989 39.9886 62.5369 39.429 61.6847 38.6676C60.8324 37.9062 60.4091 36.8807 60.4148 35.5909C60.4091 34.5341 60.6903 33.6108 61.2585 32.821C61.8324 32.0312 62.6193 31.4148 63.6193 30.9716C64.6193 30.5284 65.7557 30.3068 67.0284 30.3068C68.3239 30.3068 69.4545 30.5284 70.4205 30.9716C71.392 31.4148 72.1477 32.0312 72.6875 32.821C73.2273 33.6108 73.5057 34.5256 73.5227 35.5653H69.9858Z" fill="#02897A"/>
</svg>
