<svg width="106" height="18" viewBox="0 0 106 18" fill="none" xmlns="http://www.w3.org/2000/svg">
<path d="M18.2273 6.46146C18.1699 6.29487 18.0642 6.1485 17.9232 6.0404C17.7822 5.93231 17.6122 5.86722 17.4341 5.85319L12.2247 5.44558L9.97034 0.531754C9.89855 0.37349 9.78177 0.239068 9.63411 0.144711C9.48645 0.050354 9.31421 9.52702e-05 9.13818 1.35311e-07C8.96215 -9.49996e-05 8.78985 0.0499776 8.64209 0.144175C8.49432 0.238372 8.37739 0.372668 8.30542 0.530855L6.05111 5.44558L0.841621 5.85319C0.66659 5.86684 0.49926 5.92986 0.359649 6.03471C0.220038 6.13955 0.114058 6.28178 0.054388 6.44439C-0.00528203 6.60699 -0.0161155 6.78308 0.0231838 6.95158C0.0624832 7.12009 0.150251 7.27388 0.275987 7.39455L4.12577 11.09L2.76423 16.8956C2.72288 17.0713 2.73613 17.2552 2.80226 17.4234C2.86838 17.5917 2.98432 17.7364 3.13504 17.839C3.28576 17.9415 3.4643 17.997 3.64748 17.9984C3.83066 17.9998 4.01003 17.9469 4.16232 17.8467L9.13788 14.5804L14.1134 17.8467C14.2691 17.9484 14.4527 18.0008 14.6395 17.9968C14.8262 17.9927 15.0073 17.9325 15.1583 17.8241C15.3092 17.7157 15.4229 17.5644 15.4839 17.3905C15.5449 17.2166 15.5504 17.0285 15.4997 16.8515L13.8283 11.0927L17.9733 7.41975C18.2447 7.1786 18.3443 6.80248 18.2273 6.46146Z" fill="#F3CD03"/>
<path d="M40.1587 6.46146C40.1013 6.29487 39.9956 6.1485 39.8546 6.0404C39.7136 5.93231 39.5436 5.86722 39.3655 5.85319L34.156 5.44558L31.9017 0.531754C31.8299 0.37349 31.7132 0.239068 31.5655 0.144711C31.4178 0.050354 31.2456 9.52702e-05 31.0696 1.35311e-07C30.8935 -9.49996e-05 30.7213 0.0499776 30.5735 0.144175C30.4257 0.238372 30.3088 0.372668 30.2368 0.530855L27.9825 5.44558L22.773 5.85319C22.598 5.86684 22.4307 5.92986 22.291 6.03471C22.1514 6.13955 22.0455 6.28178 21.9858 6.44439C21.9261 6.60699 21.9153 6.78308 21.9546 6.95158C21.9939 7.12009 22.0816 7.27388 22.2074 7.39455L26.0572 11.09L24.6956 16.8956C24.6543 17.0713 24.6675 17.2552 24.7337 17.4234C24.7998 17.5917 24.9157 17.7364 25.0664 17.839C25.2172 17.9415 25.3957 17.997 25.5789 17.9984C25.7621 17.9998 25.9414 17.9469 26.0937 17.8467L31.0693 14.5804L36.0448 17.8467C36.2005 17.9484 36.3841 18.0008 36.5708 17.9968C36.7576 17.9927 36.9387 17.9325 37.0897 17.8241C37.2406 17.7157 37.3543 17.5644 37.4153 17.3905C37.4763 17.2166 37.4818 17.0285 37.4311 16.8515L35.7597 11.0927L39.9047 7.41975C40.1761 7.1786 40.2757 6.80248 40.1587 6.46146Z" fill="#F3CD03"/>
<path d="M62.0867 6.46146C62.0293 6.29487 61.9235 6.1485 61.7826 6.0404C61.6416 5.93231 61.4716 5.86722 61.2935 5.85319L56.084 5.44558L53.8297 0.531754C53.7579 0.37349 53.6411 0.239068 53.4935 0.144711C53.3458 0.050354 53.1736 9.52702e-05 52.9976 1.35311e-07C52.8215 -9.49996e-05 52.6492 0.0499776 52.5015 0.144175C52.3537 0.238372 52.2368 0.372668 52.1648 0.530855L49.9105 5.44558L44.701 5.85319C44.526 5.86684 44.3586 5.92986 44.219 6.03471C44.0794 6.13955 43.9734 6.28178 43.9138 6.44439C43.8541 6.60699 43.8433 6.78308 43.8826 6.95158C43.9219 7.12009 44.0096 7.27388 44.1354 7.39455L47.9851 11.09L46.6236 16.8956C46.5823 17.0713 46.5955 17.2552 46.6616 17.4234C46.7278 17.5917 46.8437 17.7364 46.9944 17.839C47.1451 17.9415 47.3237 17.997 47.5069 17.9984C47.69 17.9998 47.8694 17.9469 48.0217 17.8467L52.9973 14.5804L57.9728 17.8467C58.1285 17.9484 58.312 18.0008 58.4988 17.9968C58.6856 17.9927 58.8667 17.9325 59.0176 17.8241C59.1686 17.7157 59.2823 17.5644 59.3433 17.3905C59.4043 17.2166 59.4098 17.0285 59.359 16.8515L57.6877 11.0927L61.8327 7.41975C62.104 7.1786 62.2037 6.80248 62.0867 6.46146Z" fill="#F3CD03"/>
<path d="M84.02 6.46146C83.9626 6.29487 83.8569 6.1485 83.7159 6.0404C83.575 5.93231 83.405 5.86722 83.2269 5.85319L78.0174 5.44558L75.7631 0.531754C75.6913 0.37349 75.5745 0.239068 75.4268 0.144711C75.2792 0.050354 75.1069 9.52702e-05 74.9309 1.35311e-07C74.7549 -9.49996e-05 74.5826 0.0499776 74.4348 0.144175C74.287 0.238372 74.1701 0.372668 74.0981 0.530855L71.8438 5.44558L66.6343 5.85319C66.4593 5.86684 66.292 5.92986 66.1524 6.03471C66.0128 6.13955 65.9068 6.28178 65.8471 6.44439C65.7874 6.60699 65.7766 6.78308 65.8159 6.95158C65.8552 7.12009 65.943 7.27388 66.0687 7.39455L69.9185 11.09L68.557 16.8956C68.5156 17.0713 68.5289 17.2552 68.595 17.4234C68.6611 17.5917 68.777 17.7364 68.9278 17.839C69.0785 17.9415 69.257 17.997 69.4402 17.9984C69.6234 17.9998 69.8028 17.9469 69.955 17.8467L74.9306 14.5804L79.9062 17.8467C80.0618 17.9484 80.2454 18.0008 80.4322 17.9968C80.619 17.9927 80.8 17.9325 80.951 17.8241C81.102 17.7157 81.2156 17.5644 81.2766 17.3905C81.3377 17.2166 81.3432 17.0285 81.2924 16.8515L79.6211 11.0927L83.766 7.41975C84.0374 7.1786 84.137 6.80248 84.02 6.46146Z" fill="#F3CD03"/>
<path d="M91.851 11.0901L90.4895 16.8956C90.4473 17.0714 90.46 17.2556 90.5258 17.4242C90.5916 17.5928 90.7076 17.738 90.8585 17.8407C91.0094 17.9434 91.1882 17.9989 91.3716 18C91.5551 18.0011 91.7346 17.9476 91.8867 17.8467L96.8622 14.5804L101.838 17.8467C101.993 17.9485 102.177 18.0009 102.364 17.9968C102.551 17.9928 102.732 17.9325 102.883 17.8241C103.034 17.7158 103.147 17.5644 103.208 17.3906C103.269 17.2167 103.275 17.0286 103.224 16.8515L101.553 11.0928L105.698 7.41979C105.83 7.30208 105.925 7.14864 105.97 6.97844C106.015 6.80824 106.009 6.62875 105.952 6.46216C105.894 6.29557 105.789 6.14919 105.648 6.04113C105.507 5.93306 105.337 5.86805 105.159 5.85413L99.949 5.44562L97.6947 0.531792C97.6228 0.373567 97.506 0.239208 97.3583 0.144931C97.2105 0.0506541 97.0383 0.000488281 96.8622 0.000488281C96.6862 0.000488281 96.514 0.0506541 96.3662 0.144931C96.2185 0.239208 96.1017 0.373567 96.0298 0.531792L93.7755 5.44562L88.566 5.85323C88.391 5.86688 88.2236 5.9299 88.084 6.03475C87.9444 6.13959 87.8384 6.28182 87.7788 6.44442C87.7191 6.60703 87.7082 6.78311 87.7475 6.95162C87.7868 7.12013 87.8746 7.27391 88.0004 7.39459L91.851 11.0901ZM94.4581 7.19753C94.6212 7.18488 94.7778 7.12925 94.9116 7.03648C95.0454 6.94371 95.1513 6.81721 95.2183 6.67025L96.8622 3.08813L98.5061 6.67025C98.5732 6.81721 98.6791 6.94371 98.8129 7.03648C98.9467 7.12925 99.1033 7.18488 99.2664 7.19753L102.896 7.48097L99.907 10.13C99.6475 10.3603 99.5442 10.7149 99.6392 11.046L100.784 14.9916L97.3703 12.7502C97.2205 12.6512 97.0441 12.5983 96.8636 12.5983C96.6832 12.5983 96.5068 12.6512 96.3569 12.7502L92.7895 15.0924L93.749 11.0019C93.7842 10.8515 93.7794 10.6946 93.7353 10.5465C93.6911 10.3984 93.609 10.2639 93.4968 10.1561L90.7207 7.49087L94.4581 7.19753Z" fill="#F3CD03"/>
</svg>
